{
  "accessors": [
    {
      "bufferView": 2,
      "componentType": 5126,
      "count": 2244,
      "max": [
        0.47789099812507629,
        1.0730509757995605,
        0.28185299038887024
      ],
      "min": [
        -0.49726098775863647,
        -0.72704899311065674,
        -0.51447898149490356
      ],
      "type": "VEC3"
    },
    {
      "bufferView": 2,
      "byteOffset": 26928,
      "componentType": 5126,
      "count": 2244,
      "max": [
        0.99995553493499756,
        0.99744671583175659,
        0.99918842315673828
      ],
      "min": [
        -0.99725997447967529,
        -0.99984925985336304,
        -0.99952238798141479
      ],
      "type": "VEC3"
    },
    {
      "bufferView": 1,
      "componentType": 5126,
      "count": 2244,
      "max": [
        0.98993402719497681,
        0.9916120171546936
      ],
      "min": [
        0,
        0
      ],
      "type": "VEC2"
    },
    {
      "bufferView": 0,
      "componentType": 5125,
      "count": 11679,
      "max": [
        2243
      ],
      "min": [
        0
      ],
      "type": "SCALAR"
    },
    {
      "bufferView": 2,
      "byteOffset": 53856,
      "componentType": 5126,
      "count": 22,
      "max": [
        0.038116000592708588,
        0.039641000330448151,
        0.53970599174499512
      ],
      "min": [
        -0.27516800165176392,
        -0.44919899106025696,
        0.18693900108337402
      ],
      "type": "VEC3"
    },
    {
      "bufferView": 2,
      "byteOffset": 54120,
      "componentType": 5126,
      "count": 22,
      "max": [
        0.86608844995498657,
        0.65171384811401367,
        0.85136842727661133
      ],
      "min": [
        -0.89001846313476562,
        -0.73859333992004395,
        -0.85136842727661133
      ],
      "type": "VEC3"
    },
    {
      "bufferView": 1,
      "byteOffset": 17952,
      "componentType": 5126,
      "count": 22,
      "max": [
        0.98774701356887817,
        0.62128102779388428
      ],
      "min": [
        0.85416597127914429,
        0.55907797813415527
      ],
      "type": "VEC2"
    },
    {
      "bufferView": 0,
      "byteOffset": 46716,
      "componentType": 5125,
      "count": 48,
      "max": [
        21
      ],
      "min": [
        0
      ],
      "type": "SCALAR"
    },
    {
      "bufferView": 2,
      "byteOffset": 54384,
      "componentType": 5126,
      "count": 749,
      "max": [
        0.35173401236534119,
        0.26561099290847778,
        1.0903340578079224
      ],
      "min": [
        -0.35728099942207336,
        -0.2238440066576004,
        0.53738999366760254
      ],
      "type": "VEC3"
    },
    {
      "bufferView": 2,
      "byteOffset": 63372,
      "componentType": 5126,
      "count": 749,
      "max": [
        0.99261587858200073,
        0.9960295557975769,
        0.98139160871505737
      ],
      "min": [
        -0.99819177389144897,
        -0.98914182186126709,
        -0.99619883298873901
      ],
      "type": "VEC3"
    },
    {
      "bufferView": 1,
      "byteOffset": 18128,
      "componentType": 5126,
      "count": 749,
      "max": [
        0.4960939884185791,
        0.99953800439834595
      ],
      "min": [
        0.0021919999271631241,
        0.0076000001281499863
      ],
      "type": "VEC2"
    },
    {
      "bufferView": 0,
      "byteOffset": 46908,
      "componentType": 5125,
      "count": 1692,
      "max": [
        748
      ],
      "min": [
        0
      ],
      "type": "SCALAR"
    },
    {
      "bufferView": 2,
      "byteOffset": 72360,
      "componentType": 5126,
      "count": 1468,
      "max": [
        0.21761700510978699,
        0.38148900866508484,
        0.59676802158355713
      ],
      "min": [
        -0.20926299691200256,
        -0.35465401411056519,
        0.14887699484825134
      ],
      "type": "VEC3"
    },
    {
      "bufferView": 2,
      "byteOffset": 89976,
      "componentType": 5126,
      "count": 1468,
      "max": [
        0.99957042932510376,
        0.99941062927246094,
        0.99906325340270996
      ],
      "min": [
        -0.99930238723754883,
        -0.99951702356338501,
        -0.99989330768585205
      ],
      "type": "VEC3"
    },
    {
      "bufferView": 1,
      "byteOffset": 24120,
      "componentType": 5126,
      "count": 1468,
      "max": [
        0.99747997522354126,
        0.99693202972412109
      ],
      "min": [
        0.12841199338436127,
        0.0032889998983591795
      ],
      "type": "VEC2"
    },
    {
      "bufferView": 0,
      "byteOffset": 53676,
      "componentType": 5125,
      "count": 5922,
      "max": [
        1467
      ],
      "min": [
        0
      ],
      "type": "SCALAR"
    }
  ],
  "asset": {
    "extras": {
      "author": "Antouss (https://sketchfab.com/antouss)",
      "license": "CC-BY-4.0 (http://creativecommons.org/licenses/by/4.0/)",
      "source": "https://sketchfab.com/3d-models/son-goku-and-kintoun-nimbus-0e05229282e644ab978d7d9c09ab4ec2",
      "title": "Son Goku and Kintoun Nimbus"
    },
    "generator": "Sketchfab-10.16.0",
    "version": "2.0"
  },
  "bufferViews": [
    {
      "buffer": 0,
      "byteLength": 77364,
      "byteOffset": 0,
      "name": "floatBufferViews",
      "target": 34963
    },
    {
      "buffer": 0,
      "byteLength": 35864,
      "byteOffset": 77364,
      "byteStride": 8,
      "name": "floatBufferViews",
      "target": 34962
    },
    {
      "buffer": 0,
      "byteLength": 107592,
      "byteOffset": 113228,
      "byteStride": 12,
      "name": "floatBufferViews",
      "target": 34962
    }
  ],
  "buffers": [
    {
      "byteLength": 220820,
      "uri": "scene.bin"
    }
  ],
  "extensionsRequired": [
    "KHR_materials_pbrSpecularGlossiness"
  ],
  "extensionsUsed": [
    "KHR_materials_pbrSpecularGlossiness"
  ],
  "images": [
    {
      "uri": "textures/7_-nimbus_0_0_0_diffuse.png"
    },
    {
      "uri": "textures/7_-staffhand_0.1_16_16_diffuse.png"
    }
  ],
  "materials": [
    {
      "doubleSided": true,
      "emissiveFactor": [
        0,
        0,
        0
      ],
      "extensions": {
        "KHR_materials_pbrSpecularGlossiness": {
          "diffuseFactor": [
            1,
            1,
            1,
            1
          ],
          "diffuseTexture": {
            "index": 0,
            "texCoord": 0
          },
          "glossinessFactor": 0.21196816244197753,
          "specularFactor": [
            0,
            0,
            0
          ]
        }
      },
      "name": "7_-nimbus_0_0_0"
    },
    {
      "doubleSided": true,
      "emissiveFactor": [
        0,
        0,
        0
      ],
      "extensions": {
        "KHR_materials_pbrSpecularGlossiness": {
          "diffuseFactor": [
            1,
            1,
            1,
            1
          ],
          "diffuseTexture": {
            "index": 1,
            "texCoord": 0
          },
          "glossinessFactor": 0.21196816244197753,
          "specularFactor": [
            0,
            0,
            0
          ]
        }
      },
      "name": "7_-staffhand_0.1_16_16"
    },
    {
      "doubleSided": true,
      "emissiveFactor": [
        0,
        0,
        0
      ],
      "extensions": {
        "KHR_materials_pbrSpecularGlossiness": {
          "diffuseFactor": [
            1,
            1,
            1,
            1
          ],
          "diffuseTexture": {
            "index": 1,
            "texCoord": 0
          },
          "glossinessFactor": 0.21196816244197753,
          "specularFactor": [
            0,
            0,
            0
          ]
        }
      },
      "name": "7_body_0.1_16_16"
    },
    {
      "doubleSided": true,
      "emissiveFactor": [
        0,
        0,
        0
      ],
      "extensions": {
        "KHR_materials_pbrSpecularGlossiness": {
          "diffuseFactor": [
            1,
            1,
            1,
            1
          ],
          "diffuseTexture": {
            "index": 1,
            "texCoord": 0
          },
          "glossinessFactor": 0.21196816244197753,
          "specularFactor": [
            0,
            0,
            0
          ]
        }
      },
      "name": "7_head_0.1_16_16"
    }
  ],
  "meshes": [
    {
      "primitives": [
        {
          "attributes": {
            "NORMAL": 1,
            "POSITION": 0,
            "TEXCOORD_0": 2
          },
          "indices": 3,
          "material": 0,
          "mode": 4
        }
      ]
    },
    {
      "primitives": [
        {
          "attributes": {
            "NORMAL": 5,
            "POSITION": 4,
            "TEXCOORD_0": 6
          },
          "indices": 7,
          "material": 1,
          "mode": 4
        }
      ]
    },
    {
      "primitives": [
        {
          "attributes": {
            "NORMAL": 9,
            "POSITION": 8,
            "TEXCOORD_0": 10
          },
          "indices": 11,
          "material": 3,
          "mode": 4
        }
      ]
    },
    {
      "primitives": [
        {
          "attributes": {
            "NORMAL": 13,
            "POSITION": 12,
            "TEXCOORD_0": 14
          },
          "indices": 15,
          "material": 2,
          "mode": 4
        }
      ]
    }
  ],
  "nodes": [
    {
      "children": [
        1
      ],
      "name": "RootNode (gltf orientation matrix)",
      "rotation": [
        -0.70710678118654746,
        -0,
        -0,
        0.70710678118654757
      ]
    },
    {
      "children": [
        2
      ],
      "name": "RootNode (model correction matrix)"
    },
    {
      "children": [
        3,
        4,
        5,
        6
      ],
      "name": "Goku Diorama.obj.cleaner.materialmerger.gles"
    },
    {
      "mesh": 0,
      "name": ""
    },
    {
      "mesh": 1,
      "name": ""
    },
    {
      "mesh": 2,
      "name": ""
    },
    {
      "mesh": 3,
      "name": ""
    }
  ],
  "samplers": [
    {
      "magFilter": 9729,
      "minFilter": 9987,
      "wrapS": 10497,
      "wrapT": 10497
    }
  ],
  "scene": 0,
  "scenes": [
    {
      "name": "OSG_Scene",
      "nodes": [
        0
      ]
    }
  ],
  "textures": [
    {
      "sampler": 0,
      "source": 0
    },
    {
      "sampler": 0,
      "source": 1
    }
  ]
}

