{
  "accessors": [
    {
      "bufferView": 1,
      "componentType": 5126,
      "count": 65532,
      "max": [
        0.56255912780761719,
        1.3370517492294312,
        0.93151140213012695
      ],
      "min": [
        -0.89869213104248047,
        -1.1220589876174927,
        -0.69994515180587769
      ],
      "type": "VEC3"
    },
    {
      "bufferView": 1,
      "byteOffset": 786384,
      "componentType": 5126,
      "count": 65532,
      "max": [
        0.99984550476074219,
        0.99963158369064331,
        0.99999970197677612
      ],
      "min": [
        -0.99994027614593506,
        -0.99999600648880005,
        -0.99999982118606567
      ],
      "type": "VEC3"
    },
    {
      "bufferView": 0,
      "componentType": 5125,
      "count": 359913,
      "max": [
        65531
      ],
      "min": [
        0
      ],
      "type": "SCALAR"
    },
    {
      "bufferView": 1,
      "byteOffset": 1572768,
      "componentType": 5126,
      "count": 65532,
      "max": [
        0.93607306480407715,
        1.3371340036392212,
        0.92145109176635742
      ],
      "min": [
        -0.93689244985580444,
        -1.1223920583724976,
        -0.6998445987701416
      ],
      "type": "VEC3"
    },
    {
      "bufferView": 1,
      "byteOffset": 2359152,
      "componentType": 5126,
      "count": 65532,
      "max": [
        0.99994009733200073,
        0.99999761581420898,
        0.99674141407012939
      ],
      "min": [
        -0.99999403953552246,
        -0.99999713897705078,
        -0.99996101856231689
      ],
      "type": "VEC3"
    },
    {
      "bufferView": 0,
      "byteOffset": 1439652,
      "componentType": 5125,
      "count": 313188,
      "max": [
        65531
      ],
      "min": [
        0
      ],
      "type": "SCALAR"
    },
    {
      "bufferView": 1,
      "byteOffset": 3145536,
      "componentType": 5126,
      "count": 37903,
      "max": [
        0.93690752983093262,
        1.3341507911682129,
        0.86317867040634155
      ],
      "min": [
        0.0056714299134910107,
        -1.1223920583724976,
        -0.69992011785507202
      ],
      "type": "VEC3"
    },
    {
      "bufferView": 1,
      "byteOffset": 3600372,
      "componentType": 5126,
      "count": 37903,
      "max": [
        0.99999433755874634,
        0.98780220746994019,
        0.99616289138793945
      ],
      "min": [
        -0.50136011838912964,
        -0.99999713897705078,
        -0.99999016523361206
      ],
      "type": "VEC3"
    },
    {
      "bufferView": 0,
      "byteOffset": 2692404,
      "componentType": 5125,
      "count": 142419,
      "max": [
        37902
      ],
      "min": [
        0
      ],
      "type": "SCALAR"
    },
    {
      "bufferView": 1,
      "byteOffset": 4055208,
      "componentType": 5126,
      "count": 23718,
      "max": [
        0.39441302418708801,
        -0.83267557621002197,
        0.30025136470794678
      ],
      "min": [
        -0.39440730214118958,
        -0.93891513347625732,
        0.17411567270755768
      ],
      "type": "VEC3"
    },
    {
      "bufferView": 1,
      "byteOffset": 4339824,
      "componentType": 5126,
      "count": 23718,
      "max": [
        0.9999544620513916,
        0.99991989135742188,
        0.99998879432678223
      ],
      "min": [
        -0.99992650747299194,
        -0.99999731779098511,
        -0.99999451637268066
      ],
      "type": "VEC3"
    },
    {
      "bufferView": 0,
      "byteOffset": 3262080,
      "componentType": 5125,
      "count": 142284,
      "max": [
        23717
      ],
      "min": [
        0
      ],
      "type": "SCALAR"
    }
  ],
  "asset": {
    "extras": {
      "author": "mehdiafshar (https://sketchfab.com/mehdiafshar)",
      "license": "CC-BY-4.0 (http://creativecommons.org/licenses/by/4.0/)",
      "source": "https://sketchfab.com/3d-models/cute-cloud-691c72bd72de414db77214b647c780b8",
      "title": "Cute Cloud"
    },
    "generator": "Sketchfab-10.24.0",
    "version": "2.0"
  },
  "bufferViews": [
    {
      "buffer": 0,
      "byteLength": 3831216,
      "byteOffset": 0,
      "name": "floatBufferViews",
      "target": 34963
    },
    {
      "buffer": 0,
      "byteLength": 4624440,
      "byteOffset": 3831216,
      "byteStride": 12,
      "name": "floatBufferViews",
      "target": 34962
    }
  ],
  "buffers": [
    {
      "byteLength": 8455656,
      "uri": "scene.bin"
    }
  ],
  "extensionsRequired": [
    "KHR_materials_pbrSpecularGlossiness"
  ],
  "extensionsUsed": [
    "KHR_materials_pbrSpecularGlossiness"
  ],
  "materials": [
    {
      "doubleSided": true,
      "extensions": {
        "KHR_materials_pbrSpecularGlossiness": {
          "diffuseFactor": [
            0.55401503271945329,
            0.81046261910681183,
            0.95021706218193103,
            1
          ],
          "glossinessFactor": 0.21394761322802469,
          "specularFactor": [
            0,
            0,
            0
          ]
        }
      },
      "name": "material_0"
    }
  ],
  "meshes": [
    {
      "primitives": [
        {
          "attributes": {
            "NORMAL": 1,
            "POSITION": 0
          },
          "indices": 2,
          "material": 0,
          "mode": 4
        }
      ]
    },
    {
      "primitives": [
        {
          "attributes": {
            "NORMAL": 4,
            "POSITION": 3
          },
          "indices": 5,
          "material": 0,
          "mode": 4
        }
      ]
    },
    {
      "primitives": [
        {
          "attributes": {
            "NORMAL": 7,
            "POSITION": 6
          },
          "indices": 8,
          "material": 0,
          "mode": 4
        }
      ]
    },
    {
      "primitives": [
        {
          "attributes": {
            "NORMAL": 10,
            "POSITION": 9
          },
          "indices": 11,
          "material": 0,
          "mode": 4
        }
      ]
    }
  ],
  "nodes": [
    {
      "children": [
        1
      ],
      "name": "RootNode (gltf orientation matrix)",
      "rotation": [
        -0.70710678118654746,
        -0,
        -0,
        0.70710678118654757
      ]
    },
    {
      "children": [
        2
      ],
      "name": "RootNode (model correction matrix)"
    },
    {
      "children": [
        3,
        4,
        5,
        6
      ],
      "name": "New.OBJ.cleaner.materialmerger.gles"
    },
    {
      "mesh": 0,
      "name": ""
    },
    {
      "mesh": 1,
      "name": ""
    },
    {
      "mesh": 2,
      "name": ""
    },
    {
      "mesh": 3,
      "name": ""
    }
  ],
  "scene": 0,
  "scenes": [
    {
      "name": "OSG_Scene",
      "nodes": [
        0
      ]
    }
  ]
}

