{
  "accessors": [
    {
      "bufferView": 2,
      "componentType": 5126,
      "count": 2342,
      "max": [
        153.24786376953125,
        85.7922592163086,
        3.666987895965576
      ],
      "min": [
        -1.6421055793762207,
        -0.072583869099617,
        -1.8764508962631226
      ],
      "type": "VEC3"
    },
    {
      "bufferView": 2,
      "byteOffset": 28104,
      "componentType": 5126,
      "count": 2342,
      "max": [
        0.8190528750419617,
        0.818840503692627,
        0.7757420539855957
      ],
      "min": [
        -0.7832106351852417,
        -0.8170599341392517,
        -0.7725266814231873
      ],
      "type": "VEC3"
    },
    {
      "bufferView": 3,
      "componentType": 5126,
      "count": 2342,
      "max": [
        0.9999892711639404,
        0.774095356464386,
        0.9722719788551331,
        1.0
      ],
      "min": [
        -0.9999012351036072,
        -0.7465100884437561,
        -0.9807687401771545,
        1.0
      ],
      "type": "VEC4"
    },
    {
      "bufferView": 1,
      "componentType": 5126,
      "count": 2342,
      "max": [
        0.9999786019325256,
        0.9991763234138489
      ],
      "min": [
        8.708406676305458e-05,
        0.0008236672729253769
      ],
      "type": "VEC2"
    },
    {
      "bufferView": 0,
      "componentType": 5125,
      "count": 4866,
      "type": "SCALAR"
    }
  ],
  "asset": {
    "extras": {
      "author": "Thunder (https://sketchfab.com/thunderpwn)",
      "license": "CC-BY-4.0 (http://creativecommons.org/licenses/by/4.0/)",
      "source": "https://sketchfab.com/3d-models/modular-roof-tiles-5697aab59f2b4c49aa304aa2168d6289",
      "title": "modular Roof tiles"
    },
    "generator": "Sketchfab-10.82.0",
    "version": "2.0"
  },
  "bufferViews": [
    {
      "buffer": 0,
      "byteLength": 19464,
      "name": "floatBufferViews",
      "target": 34963
    },
    {
      "buffer": 0,
      "byteLength": 18736,
      "byteOffset": 19464,
      "byteStride": 8,
      "name": "floatBufferViews",
      "target": 34962
    },
    {
      "buffer": 0,
      "byteLength": 56208,
      "byteOffset": 38200,
      "byteStride": 12,
      "name": "floatBufferViews",
      "target": 34962
    },
    {
      "buffer": 0,
      "byteLength": 37472,
      "byteOffset": 94408,
      "byteStride": 16,
      "name": "floatBufferViews",
      "target": 34962
    }
  ],
  "buffers": [
    {
      "byteLength": 131880,
      "uri": "scene.bin"
    }
  ],
  "images": [
    {
      "uri": "textures/Scene_-_Root_baseColor.png"
    },
    {
      "uri": "textures/Scene_-_Root_metallicRoughness.png"
    },
    {
      "uri": "textures/Scene_-_Root_normal.png"
    }
  ],
  "materials": [
    {
      "doubleSided": true,
      "name": "Scene_-_Root",
      "normalTexture": {
        "index": 2
      },
      "pbrMetallicRoughness": {
        "baseColorTexture": {
          "index": 0
        },
        "metallicRoughnessTexture": {
          "index": 1
        }
      }
    }
  ],
  "meshes": [
    {
      "name": "Roof__0",
      "primitives": [
        {
          "attributes": {
            "NORMAL": 1,
            "POSITION": 0,
            "TANGENT": 2,
            "TEXCOORD_0": 3
          },
          "indices": 4,
          "material": 0,
          "mode": 4
        }
      ]
    }
  ],
  "nodes": [
    {
      "children": [
        1
      ],
      "matrix": [
        1.0,
        0.0,
        0.0,
        0.0,
        0.0,
        2.220446049250313e-16,
        -1.0,
        0.0,
        0.0,
        1.0,
        2.220446049250313e-16,
        0.0,
        0.0,
        0.0,
        0.0,
        1.0
      ],
      "name": "Sketchfab_model"
    },
    {
      "children": [
        2
      ],
      "matrix": [
        1.0,
        0.0,
        0.0,
        0.0,
        0.0,
        0.0,
        1.0,
        0.0,
        0.0,
        -1.0,
        0.0,
        0.0,
        0.0,
        0.0,
        0.0,
        1.0
      ],
      "name": "roof.fbx"
    },
    {
      "children": [
        3
      ],
      "name": "RootNode"
    },
    {
      "children": [
        4
      ],
      "matrix": [
        1.0,
        0.0,
        0.0,
        0.0,
        0.0,
        -1.6292067939183141e-07,
        -0.9999999999999868,
        0.0,
        0.0,
        0.9999999999999868,
        -1.6292067939183141e-07,
        0.0,
        0.0,
        0.0,
        0.0,
        1.0
      ],
      "name": "Roof"
    },
    {
      "mesh": 0,
      "name": "Roof__0"
    }
  ],
  "samplers": [
    {
      "magFilter": 9729,
      "minFilter": 9987,
      "wrapS": 10497,
      "wrapT": 10497
    }
  ],
  "scene": 0,
  "scenes": [
    {
      "name": "Sketchfab_Scene",
      "nodes": [
        0
      ]
    }
  ],
  "textures": [
    {
      "sampler": 0,
      "source": 0
    },
    {
      "sampler": 0,
      "source": 1
    },
    {
      "sampler": 0,
      "source": 2
    }
  ]
}
