{
  "accessors": [
    {
      "bufferView": 2,
      "componentType": 5126,
      "count": 363,
      "max": [
        162.24497985839844,
        90.975433349609375,
        177.69450378417969
      ],
      "min": [
        -190.87538146972656,
        -284.82049560546875,
        -185.12921142578125
      ],
      "type": "VEC3"
    },
    {
      "bufferView": 2,
      "byteOffset": 4356,
      "componentType": 5126,
      "count": 363,
      "max": [
        0.99946320056915283,
        1,
        0.99945390224456787
      ],
      "min": [
        -0.99945753812789917,
        -0.9974256157875061,
        -0.99946677684783936
      ],
      "type": "VEC3"
    },
    {
      "bufferView": 1,
      "componentType": 5126,
      "count": 363,
      "max": [
        0.99946767091751099,
        0.99855327606201172
      ],
      "min": [
        0.00092239974765107036,
        0.0015599940670654178
      ],
      "type": "VEC2"
    },
    {
      "bufferView": 0,
      "componentType": 5125,
      "count": 900,
      "max": [
        362
      ],
      "min": [
        0
      ],
      "type": "SCALAR"
    }
  ],
  "asset": {
    "extras": {
      "author": "m1ch3lang3lo (https://sketchfab.com/berkankirmitt)",
      "license": "CC-BY-4.0 (http://creativecommons.org/licenses/by/4.0/)",
      "source": "https://sketchfab.com/3d-models/palm-tree-bc826f1f48e744438cb9a37394507967",
      "title": "Palm Tree"
    },
    "generator": "Sketchfab-8.87.0",
    "version": "2.0"
  },
  "bufferViews": [
    {
      "buffer": 0,
      "byteLength": 3600,
      "byteOffset": 0,
      "name": "floatBufferViews",
      "target": 34963
    },
    {
      "buffer": 0,
      "byteLength": 2904,
      "byteOffset": 3600,
      "byteStride": 8,
      "name": "floatBufferViews",
      "target": 34962
    },
    {
      "buffer": 0,
      "byteLength": 8712,
      "byteOffset": 6504,
      "byteStride": 12,
      "name": "floatBufferViews",
      "target": 34962
    }
  ],
  "buffers": [
    {
      "byteLength": 15216,
      "uri": "scene.bin"
    }
  ],
  "images": [
    {
      "uri": "textures/Material.010_baseColor.png"
    }
  ],
  "materials": [
    {
      "doubleSided": true,
      "emissiveFactor": [
        0,
        0,
        0
      ],
      "name": "Material.010",
      "pbrMetallicRoughness": {
        "baseColorFactor": [
          1,
          1,
          1,
          1
        ],
        "baseColorTexture": {
          "index": 0,
          "texCoord": 0
        },
        "metallicFactor": 0,
        "roughnessFactor": 0.82111456180001685
      }
    }
  ],
  "meshes": [
    {
      "name": "palmiye_Material.010_0",
      "primitives": [
        {
          "attributes": {
            "NORMAL": 1,
            "POSITION": 0,
            "TEXCOORD_0": 2
          },
          "indices": 3,
          "material": 0,
          "mode": 4
        }
      ]
    }
  ],
  "nodes": [
    {
      "children": [
        1
      ],
      "name": "RootNode (gltf orientation matrix)",
      "rotation": [
        -0.70710678118654746,
        -0,
        -0,
        0.70710678118654757
      ]
    },
    {
      "children": [
        2
      ],
      "name": "RootNode (model correction matrix)"
    },
    {
      "children": [
        3
      ],
      "matrix": [
        1,
        0,
        0,
        0,
        0,
        0,
        1,
        0,
        0,
        -1,
        0,
        0,
        0,
        0,
        0,
        1
      ],
      "name": "palm.fbx"
    },
    {
      "children": [
        4
      ],
      "name": "RootNode"
    },
    {
      "children": [
        5
      ],
      "matrix": [
        1,
        0,
        0,
        0,
        0,
        0.99999999999998668,
        1.6292067073209113e-07,
        0,
        0,
        -1.6292067073209113e-07,
        0.99999999999998668,
        0,
        391.91024780273438,
        284.74685668945312,
        -0.084523521363735199,
        1
      ],
      "name": "palmiye"
    },
    {
      "mesh": 0,
      "name": "palmiye_Material.010_0"
    }
  ],
  "samplers": [
    {
      "magFilter": 9729,
      "minFilter": 9987,
      "wrapS": 10497,
      "wrapT": 10497
    }
  ],
  "scene": 0,
  "scenes": [
    {
      "name": "OSG_Scene",
      "nodes": [
        0
      ]
    }
  ],
  "textures": [
    {
      "sampler": 0,
      "source": 0
    }
  ]
}

